<?xml version="1.0" standalone="no"?>
<!DOCTYPE svg PUBLIC "-//W3C//DTD SVG 20010904//EN" "http://www.w3.org/TR/2001/REC-SVG-20010904/DTD/svg10.dtd">
<svg
  version="1.0"
  xmlns="http://www.w3.org/2000/svg"
  width="500.000000pt"
  height="500.000000pt"
  viewBox="0 0 500.000000 500.000000"
  preserveAspectRatio="xMidYMid meet"
>
  <g
    transform="translate(0.000000,500.000000) scale(0.100000,-0.100000)"
    fill="#000000"
    stroke="none"
  >
    <path
      d="M0 2500 l0 -2500 2500 0 2500 0 0 2500 0 2500 -2500 0 -2500 0 0
-2500z m2238 1749 c186 -20 446 -91 608 -166 l62 -28 -96 -242 c-60 -153 -100
-243 -109 -243 -7 0 -35 11 -61 24 -91 46 -318 125 -407 141 -128 25 -283 17
-390 -19 -254 -86 -415 -318 -470 -676 -17 -111 -20 -377 -5 -500 40 -323 162
-539 362 -640 121 -60 198 -73 402 -67 190 6 328 32 542 101 61 20 114 36 118
36 3 0 5 -114 4 -252 l-3 -252 -72 -28 c-315 -121 -787 -152 -1100 -73 -488
124 -787 498 -867 1086 -67 490 15 942 232 1274 62 93 206 242 295 303 187
129 396 201 642 221 148 12 205 12 313 0z m1902 -1424 c0 -927 -4 -1428 -11
-1492 -39 -352 -190 -599 -436 -715 -209 -98 -518 -125 -765 -67 l-48 11 0
252 0 253 93 -18 c199 -39 360 -16 439 63 22 22 52 65 66 96 58 127 55 55 59
1595 l4 1417 300 0 299 0 0 -1395z"
    />
  </g>
</svg>
